<?xml version="1.0" encoding="UTF-8"?>
<svg version="1.1" xmlns="http://www.w3.org/2000/svg" width="160" height="160">
<path d="M0 0 C0.90965012 -0.0065712 1.81930023 -0.0131424 2.7565155 -0.01991272 C5.76069226 -0.03958807 8.76481911 -0.05129666 11.76904297 -0.0612793 C12.79882137 -0.06535482 13.82859978 -0.06943035 14.88958359 -0.07362938 C20.34223986 -0.09446745 25.79487115 -0.10877791 31.24755859 -0.11816406 C36.8593721 -0.12921234 42.47078736 -0.16360077 48.0824604 -0.20333576 C52.41497499 -0.22957081 56.74739574 -0.23786211 61.07998276 -0.24144554 C63.14748697 -0.24629514 65.21498744 -0.25786231 67.28241348 -0.27648354 C83.03768676 -0.40954973 95.70254781 0.83511565 107.82373047 11.9543457 C119.13370018 23.87368878 118.64544812 36.86307476 118.58544922 52.3605957 C118.59136667 54.62541579 118.59861695 56.89023275 118.60713196 59.15504456 C118.61897585 63.88819753 118.61236481 68.62087918 118.59301758 73.35400391 C118.57013995 79.39410546 118.59691914 85.43279929 118.63807964 91.47276211 C118.66375815 96.1459545 118.66105023 100.81881457 118.65018654 105.49205208 C118.64870824 107.71780742 118.65629188 109.9435893 118.67343712 112.1692791 C118.81709531 134.42832363 118.81709531 134.42832363 111.88623047 144.17700195 C111.17034004 145.21920143 111.17034004 145.21920143 110.43998718 146.28245544 C105.44726037 153.14873602 96.96315417 158.00031653 88.88623047 160.17700195 C85.60152102 160.47788546 82.32917613 160.49119724 79.03222656 160.49926758 C77.5675293 160.51416229 77.5675293 160.51416229 76.07324219 160.52935791 C72.85202174 160.55849664 69.63099841 160.572189 66.40966797 160.58325195 C64.16012572 160.59476547 61.91058349 160.6062808 59.66104126 160.61779785 C54.94524221 160.6387895 50.22951105 160.65049267 45.51367188 160.6574707 C39.49484322 160.66842066 33.47692391 160.71644403 27.45837975 160.77341461 C22.81012422 160.81081837 18.1620842 160.82108661 13.51369095 160.82414246 C11.29627143 160.83016495 9.07885431 160.84611811 6.86158371 160.87251282 C-8.46666323 161.04192486 -19.69968104 160.16659899 -31.36767578 149.15356445 C-39.15819097 140.33477097 -42.58585345 130.20218668 -42.50195312 118.59326172 C-42.50721008 117.6814212 -42.51246704 116.76958069 -42.5178833 115.83010864 C-42.53099033 112.84269624 -42.52237753 109.85582518 -42.51220703 106.8684082 C-42.51423061 104.77530313 -42.51714441 102.68219874 -42.52090454 100.58909607 C-42.52531547 96.21232357 -42.51893715 91.83573536 -42.50488281 87.45898438 C-42.48780244 81.8696374 -42.49763288 76.28072303 -42.5156002 70.69139194 C-42.52648037 66.37176805 -42.52297213 62.05224541 -42.51521683 57.73261833 C-42.51322596 55.67268764 -42.51563464 53.61274753 -42.52265549 51.55282784 C-42.53033869 48.6650192 -42.51856974 45.77789486 -42.50195312 42.89013672 C-42.50802582 42.05190872 -42.51409851 41.21368073 -42.52035522 40.35005188 C-42.39416328 28.41499825 -37.86892056 19.25376749 -29.98876953 10.48950195 C-21.44277068 2.30594501 -11.35474181 0.03579083 0 0 Z " fill="#507DD1" transform="translate(42.11376953125,-0.177001953125)"/>
<path d="M0 0 C-0.33 9.9 -0.66 19.8 -1 30 C-9.375 30.375 -9.375 30.375 -12.00927734 30.47802734 C-16.47543818 30.54791085 -16.47543818 30.54791085 -20 33 C-20.44626783 36.12546156 -20.32410302 39.2837984 -20.3125 42.4375 C-20.32861328 43.30955078 -20.34472656 44.18160156 -20.36132812 45.08007812 C-20.36197266 45.91861328 -20.36261719 46.75714844 -20.36328125 47.62109375 C-20.36626221 48.3886499 -20.36924316 49.15620605 -20.37231445 49.94702148 C-20.11971433 52.44986561 -20.11971433 52.44986561 -17 55 C-11.72 55.33 -6.44 55.66 -1 56 C-1 75.47 -1 94.94 -1 115 C-9.1675 115.12375 -17.335 115.2475 -25.75 115.375 C-28.30331055 115.42962402 -30.85662109 115.48424805 -33.48730469 115.54052734 C-55.03099272 115.80953522 -55.03099272 115.80953522 -64 109 C-64.77867432 108.43474609 -65.55734863 107.86949219 -66.35961914 107.28710938 C-73.90341939 101.5335338 -79.22098374 92.29535993 -81 83 C-83.03066618 62.38309757 -76.21818368 42.55486297 -63.34863281 26.58691406 C-46.66167469 6.95164473 -24.97281526 0 0 0 Z " fill="#3663B9" transform="translate(81,45)"/>
<path d="M0 0 C0.99708984 -0.01611328 1.99417969 -0.03222656 3.02148438 -0.04882812 C3.97732422 -0.04947266 4.93316406 -0.05011719 5.91796875 -0.05078125 C6.78574951 -0.05376221 7.65353027 -0.05674316 8.54760742 -0.05981445 C10.8125 0.3125 10.8125 0.3125 12.59570312 1.54785156 C14.15380606 3.80747596 14.18584188 5.17828773 14.17578125 7.91015625 C14.17481445 9.23563477 14.17481445 9.23563477 14.17382812 10.58789062 C14.15771484 11.50763672 14.14160156 12.42738281 14.125 13.375 C14.12822266 14.29861328 14.13144531 15.22222656 14.13476562 16.17382812 C14.07955173 23.04544827 14.07955173 23.04544827 11.8125 25.3125 C9.78125 25.58374023 9.78125 25.58374023 7.3125 25.62109375 C6.425625 25.64623047 5.53875 25.67136719 4.625 25.69726562 C2.75006915 25.73242058 0.87506102 25.76367099 -1 25.79101562 C-2.3303125 25.8306543 -2.3303125 25.8306543 -3.6875 25.87109375 C-4.5021875 25.88454834 -5.316875 25.89800293 -6.15625 25.91186523 C-7.16171875 26.11017944 -7.16171875 26.11017944 -8.1875 26.3125 C-10.34499784 29.54874676 -10.47110488 30.65644066 -10.6015625 34.41796875 C-10.64023438 35.40087891 -10.67890625 36.38378906 -10.71875 37.39648438 C-10.76515625 38.93272461 -10.76515625 38.93272461 -10.8125 40.5 C-10.85117188 41.53576172 -10.88984375 42.57152344 -10.9296875 43.63867188 C-11.02398296 46.19643622 -11.10958202 48.75419287 -11.1875 51.3125 C-10.53152832 51.30202637 -9.87555664 51.29155273 -9.19970703 51.28076172 C-6.23734342 51.23927497 -3.27504084 51.21319738 -0.3125 51.1875 C0.72003906 51.17074219 1.75257812 51.15398437 2.81640625 51.13671875 C4.29560547 51.12705078 4.29560547 51.12705078 5.8046875 51.1171875 C7.17149658 51.10147705 7.17149658 51.10147705 8.56591797 51.08544922 C10.8125 51.3125 10.8125 51.3125 12.8125 53.3125 C12.96231849 59.80463448 11.64289465 67.09155087 9.8125 73.3125 C9.1525 73.9725 8.4925 74.6325 7.8125 75.3125 C1.5425 75.3125 -4.7275 75.3125 -11.1875 75.3125 C-11.1875 95.1125 -11.1875 114.9125 -11.1875 135.3125 C-19.4375 135.3125 -27.6875 135.3125 -36.1875 135.3125 C-36.1875 115.8425 -36.1875 96.3725 -36.1875 76.3125 C-41.4675 76.3125 -46.7475 76.3125 -52.1875 76.3125 C-56.1875 72.3125 -56.1875 72.3125 -56.68920898 70.16186523 C-56.68735596 69.40591064 -56.68550293 68.64995605 -56.68359375 67.87109375 C-56.68423828 67.04029297 -56.68488281 66.20949219 -56.68554688 65.35351562 C-56.66556641 64.49435547 -56.64558594 63.63519531 -56.625 62.75 C-56.63208984 61.88697266 -56.63917969 61.02394531 -56.64648438 60.13476562 C-56.58305379 53.85513807 -56.58305379 53.85513807 -54.91113281 51.56152344 C-52.81144348 50.03999219 -51.74598615 49.9615567 -49.17578125 50.01953125 C-48.41845703 50.02919922 -47.66113281 50.03886719 -46.88085938 50.04882812 C-46.09517578 50.07396484 -45.30949219 50.09910156 -44.5 50.125 C-43.30407227 50.14530273 -43.30407227 50.14530273 -42.08398438 50.16601562 C-40.11820033 50.20132911 -38.15276418 50.25513553 -36.1875 50.3125 C-36.20844727 49.60754395 -36.22939453 48.90258789 -36.25097656 48.17626953 C-36.33498719 44.93016269 -36.38642697 41.68428561 -36.4375 38.4375 C-36.47101563 37.32890625 -36.50453125 36.2203125 -36.5390625 35.078125 C-36.66970241 23.9737323 -33.93876436 16.29029108 -26.26953125 8.22265625 C-18.54763541 1.13821523 -10.09848635 -0.03302317 0 0 Z " fill="#FCFCFE" transform="translate(116.1875,24.6875)"/>
<path d="M0 0 C0.33 0 0.66 0 1 0 C1.13957192 10.74482259 1.24590969 21.48942636 1.31087303 32.23497391 C1.34206662 37.22566199 1.38431821 42.21572579 1.45263672 47.20605469 C1.51825954 52.03015957 1.55379588 56.85366742 1.56926346 61.67818451 C1.58027334 63.51047909 1.60177186 65.34274431 1.63438034 67.1747818 C1.86114205 80.45386055 0.29628051 91.21782336 -9.16796875 101.40625 C-23.34757957 113.7416044 -33.75263973 112 -54 112 C-54 92.2 -54 72.4 -54 52 C-47.73 51.67 -41.46 51.34 -35 51 C-33.44289503 46.32868509 -32.39810015 42.15696691 -31.5625 37.3671875 C-30.97672073 34.90203308 -30.42040269 33.1032886 -29 31 C-26.96875 30.015625 -26.96875 30.015625 -24.5 29.25 C-15.00656476 25.72425888 -7.5085434 19.09148521 -3 10 C-1.78910824 6.70803192 -0.81186899 3.4112741 0 0 Z " fill="#1F4CA0" transform="translate(159,48)"/>
<path d="M0 0 C10.06135614 -0.16227994 19.11176138 3.86325783 26.71875 10.30078125 C35.56753393 19.54776046 38.73508681 28.33278884 38.51977539 40.93896484 C37.99531684 52.70599245 34.42425076 61.61917322 26 70 C20.25391928 74.91609129 15.31702614 77.40355793 8 79 C7.67 79.99 7.34 80.98 7 82 C6.34 80.35 5.68 78.7 5 77 C-2.26 76.67 -9.52 76.34 -17 76 C-17.061875 72.4525 -17.12375 68.905 -17.1875 65.25 C-17.21481201 64.13786133 -17.24212402 63.02572266 -17.27026367 61.87988281 C-17.28150269 60.5548877 -17.28150269 60.5548877 -17.29296875 59.203125 C-17.3086792 58.30239258 -17.32438965 57.40166016 -17.34057617 56.47363281 C-16.92357283 53.44490314 -16.19497567 52.11985092 -14 50 C-11.85522461 49.48583984 -11.85522461 49.48583984 -9.40234375 49.4609375 C-8.51869141 49.43773437 -7.63503906 49.41453125 -6.72460938 49.390625 C-5.34499023 49.38289063 -5.34499023 49.38289063 -3.9375 49.375 C-2.11314482 49.34953796 -0.28887837 49.31607381 1.53515625 49.2734375 C2.343479 49.26747559 3.15180176 49.26151367 3.98461914 49.25537109 C6.22825107 49.1801557 6.22825107 49.1801557 8 47 C8.103125 46.195625 8.20625 45.39125 8.3125 44.5625 C9.2543894 41.05182134 10.92109631 40.79006028 14 39 C18.66777162 32.99857934 20.59758381 27.21926773 20.44921875 19.6640625 C19.43302494 13.6375914 15.75455047 8.89681132 11.6875 4.5 C7.96027124 2.41968627 4.18448285 1.69285555 0 1 C0 0.67 0 0.34 0 0 Z " fill="#3965B9" transform="translate(122,0)"/>
</svg>
