<?xml version="1.0" encoding="UTF-8"?>
<svg version="1.1" xmlns="http://www.w3.org/2000/svg" width="160" height="160">
<path d="M0 0 C0.90965012 -0.0065712 1.81930023 -0.0131424 2.7565155 -0.01991272 C5.76069226 -0.03958807 8.76481911 -0.05129666 11.76904297 -0.0612793 C12.79882137 -0.06535482 13.82859978 -0.06943035 14.88958359 -0.07362938 C20.34223986 -0.09446745 25.79487115 -0.10877791 31.24755859 -0.11816406 C36.8593721 -0.12921234 42.47078736 -0.16360077 48.0824604 -0.20333576 C52.41497499 -0.22957081 56.74739574 -0.23786211 61.07998276 -0.24144554 C63.14748697 -0.24629514 65.21498744 -0.25786231 67.28241348 -0.27648354 C83.03768676 -0.40954973 95.70254781 0.83511565 107.82373047 11.9543457 C119.13370018 23.87368878 118.64544812 36.86307476 118.58544922 52.3605957 C118.59136667 54.62541579 118.59861695 56.89023275 118.60713196 59.15504456 C118.61897585 63.88819753 118.61236481 68.62087918 118.59301758 73.35400391 C118.57013995 79.39410546 118.59691914 85.43279929 118.63807964 91.47276211 C118.66375815 96.1459545 118.66105023 100.81881457 118.65018654 105.49205208 C118.64870824 107.71780742 118.65629188 109.9435893 118.67343712 112.1692791 C118.81709531 134.42832363 118.81709531 134.42832363 111.88623047 144.17700195 C111.17034004 145.21920143 111.17034004 145.21920143 110.43998718 146.28245544 C105.44726037 153.14873602 96.96315417 158.00031653 88.88623047 160.17700195 C85.60152102 160.47788546 82.32917613 160.49119724 79.03222656 160.49926758 C77.5675293 160.51416229 77.5675293 160.51416229 76.07324219 160.52935791 C72.85202174 160.55849664 69.63099841 160.572189 66.40966797 160.58325195 C64.16012572 160.59476547 61.91058349 160.6062808 59.66104126 160.61779785 C54.94524221 160.6387895 50.22951105 160.65049267 45.51367188 160.6574707 C39.49484322 160.66842066 33.47692391 160.71644403 27.45837975 160.77341461 C22.81012422 160.81081837 18.1620842 160.82108661 13.51369095 160.82414246 C11.29627143 160.83016495 9.07885431 160.84611811 6.86158371 160.87251282 C-8.46666323 161.04192486 -19.69968104 160.16659899 -31.36767578 149.15356445 C-39.15819097 140.33477097 -42.58585345 130.20218668 -42.50195312 118.59326172 C-42.50721008 117.6814212 -42.51246704 116.76958069 -42.5178833 115.83010864 C-42.53099033 112.84269624 -42.52237753 109.85582518 -42.51220703 106.8684082 C-42.51423061 104.77530313 -42.51714441 102.68219874 -42.52090454 100.58909607 C-42.52531547 96.21232357 -42.51893715 91.83573536 -42.50488281 87.45898438 C-42.48780244 81.8696374 -42.49763288 76.28072303 -42.5156002 70.69139194 C-42.52648037 66.37176805 -42.52297213 62.05224541 -42.51521683 57.73261833 C-42.51322596 55.67268764 -42.51563464 53.61274753 -42.52265549 51.55282784 C-42.53033869 48.6650192 -42.51856974 45.77789486 -42.50195312 42.89013672 C-42.50802582 42.05190872 -42.51409851 41.21368073 -42.52035522 40.35005188 C-42.39416328 28.41499825 -37.86892056 19.25376749 -29.98876953 10.48950195 C-21.44277068 2.30594501 -11.35474181 0.03579083 0 0 Z " fill="#464646" transform="translate(42.11376953125,-0.177001953125)"/>
<path d="M0 0 C1.43836751 0.11458693 2.87570966 0.24209116 4.3125 0.375 C5.51326172 0.47941406 5.51326172 0.47941406 6.73828125 0.5859375 C9 1 9 1 12 3 C14.54373906 3.20753546 16.97527484 3.30404999 19.51953125 3.30078125 C20.62381721 3.30720894 20.62381721 3.30720894 21.75041199 3.31376648 C23.30796278 3.31950652 24.86554038 3.32001242 26.4230957 3.31567383 C28.793604 3.3125251 31.16285014 3.33593589 33.53320312 3.36132812 C35.0494776 3.36360245 36.56575541 3.36430399 38.08203125 3.36328125 C38.78536087 3.372491 39.48869049 3.38170074 40.21333313 3.39118958 C44.90982752 3.34756474 47.92844668 2.25618302 52 0 C55.25 -0.375 55.25 -0.375 58 0 C60.76545283 4.14817925 60.38237083 7.7813319 60.55859375 12.67578125 C60.82165828 16.0540238 60.82165828 16.0540238 62.5078125 18.98828125 C65.39744618 24.82050002 65.06683958 32.31194705 63.2734375 38.51171875 C60.19394519 45.08380599 55.12653053 49.2708075 49 53 C45.52674819 54.1577506 42.63932552 54.06866652 39 54 C40.21623047 55.39798828 40.21623047 55.39798828 41.45703125 56.82421875 C44.85503019 61.58045907 44.70709918 66.13265697 44.6875 71.8125 C44.70403875 73.69410037 44.72838463 75.57565348 44.76171875 77.45703125 C44.76131592 78.28178955 44.76091309 79.10654785 44.76049805 79.95629883 C44.81236782 82.22569972 44.81236782 82.22569972 47 84 C55.13924445 84.17317541 61.6917393 79.00280314 67.49609375 73.734375 C73.1397171 67.83379072 76.77875061 61.46696171 80 54 C80.35964844 53.25492188 80.71929687 52.50984375 81.08984375 51.7421875 C81.92611862 49.22259541 82.28249496 47.11958935 82.5703125 44.49609375 C82.663125 43.67302734 82.7559375 42.84996094 82.8515625 42.00195312 C83.03401986 40.29076377 83.19285682 38.57689282 83.328125 36.86132812 C84.07941368 30.72098795 84.07941368 30.72098795 86.79150391 28.59692383 C88.921875 27.546875 88.921875 27.546875 91.01074219 26.75683594 C97.60276415 24.24882562 101.8746723 18.03861251 105 12 C106.24785127 8.37795979 107.20193654 4.7452978 108 1 C108.33 1 108.66 1 109 1 C109.13956099 11.87520845 109.24590427 22.75020079 109.31087303 33.62612534 C109.34206893 38.67734355 109.38432498 43.72794516 109.45263672 48.77880859 C109.51825096 53.66126743 109.55379415 58.54313649 109.56926346 63.4260025 C109.58027483 65.28062462 109.60177635 67.13521767 109.63438034 68.98958588 C109.85959322 82.34033236 108.35141913 93.15846569 98.83203125 103.40625 C90.00572309 111.08457351 81.66592197 114.29406694 70.14599609 114.32226562 C68.68129883 114.33716034 68.68129883 114.33716034 67.18701172 114.35235596 C63.96579127 114.38149469 60.74476794 114.39518704 57.5234375 114.40625 C55.27389525 114.41776352 53.02435302 114.42927885 50.77481079 114.4407959 C46.05901174 114.46178755 41.34328058 114.47349072 36.62744141 114.48046875 C30.60861276 114.49141871 24.59069344 114.53944208 18.57214928 114.59641266 C13.92389376 114.63381642 9.27585373 114.64408466 4.62746048 114.6471405 C2.41004096 114.65316299 0.19262384 114.66911616 -2.02464676 114.69551086 C-17.3528937 114.86492291 -28.58591151 113.98959704 -40.25390625 102.9765625 C-48.62935875 93.49562521 -51.57967278 83.41156042 -51.28125 70.96484375 C-49.78851909 49.92148434 -40.74508354 31.07007465 -25 17 C-24.67 17 -24.34 17 -24 17 C-24.165 18.19625 -24.33 19.3925 -24.5 20.625 C-26.30876426 37.59546472 -24.52584621 53.8374569 -13.890625 67.76171875 C-9.42405344 72.91367801 -4.66587926 77.21858719 1 81 C1.86625 81.61875 2.7325 82.2375 3.625 82.875 C6.5816977 84.27554102 8.76708379 84.29390147 12 84 C13.73956658 82.26043342 13.37190386 79.8063378 13.5625 77.4375 C13.68818359 75.91962891 13.68818359 75.91962891 13.81640625 74.37109375 C13.87699219 73.58863281 13.93757813 72.80617188 14 72 C13.175 72.103125 12.35 72.20625 11.5 72.3125 C6.03634149 71.82467335 2.02372798 69.20856496 -1.66796875 65.1796875 C-2.65708265 63.96427248 -3.63925529 62.74316457 -4.61328125 61.515625 C-6.46670228 59.48991413 -8.37215483 58.69560608 -11 58 C-10.34 56.68 -9.68 55.36 -9 54 C-4.55933506 54.50390524 -2.51002587 56.0169698 0.75 59 C5.61659899 63.09203519 8.69992143 64 15 64 C15.0825 63.278125 15.165 62.55625 15.25 61.8125 C16.14750201 58.44686746 17.7114278 56.58387184 20 54 C18.88625 54.12375 17.7725 54.2475 16.625 54.375 C10.76606329 54.34383544 6.43969057 51.64662397 2 48 C-3.23297858 41.78385574 -5.15409234 36.76116659 -5.25 28.625 C-5.27578125 27.31789063 -5.3015625 26.01078125 -5.328125 24.6640625 C-4.97602362 20.73226371 -4.01522594 19.28800023 -2 16 C-1.36649139 13.25218312 -1.08561792 10.49134362 -0.8125 7.6875 C-0.73064453 6.94693359 -0.64878906 6.20636719 -0.56445312 5.44335938 C-0.36557412 3.63005077 -0.18130173 1.81515031 0 0 Z " fill="#2E2E2E" transform="translate(51,46)"/>
<path d="M0 0 C1.4130456 1.20934012 2.80950725 2.43836535 4.1875 3.6875 C4.86296875 4.24824219 5.5384375 4.80898438 6.234375 5.38671875 C14.3463043 12.63400442 21.49488823 25.00768928 22.37060547 35.98217773 C22.45540139 38.53333085 22.46047709 41.07262773 22.4375 43.625 C22.44910156 44.90793945 22.44910156 44.90793945 22.4609375 46.21679688 C22.41366638 61.70990734 15.99099194 74.77961883 5.2109375 85.6875 C0.31989892 90.2083006 -5.60366558 95.17174268 -12.39453125 96.00390625 C-15.35010834 95.61715061 -16.01249104 95.01566106 -17.8125 92.6875 C-18.18139648 90.49853516 -18.18139648 90.49853516 -18.18359375 87.9765625 C-18.20099609 87.06132813 -18.21839844 86.14609375 -18.23632812 85.203125 C-18.24540569 83.28386857 -18.25064572 81.36458995 -18.25195312 79.4453125 C-18.36616965 73.83688746 -18.65949298 70.83225054 -22.8125 66.6875 C-22.8125 66.0275 -22.8125 65.3675 -22.8125 64.6875 C-22.1834375 64.60113281 -21.554375 64.51476562 -20.90625 64.42578125 C-13.85122406 63.26765199 -7.80334622 61.49673698 -3.2421875 55.6875 C0.18129359 50.36643225 1.35593201 46.25769509 1.4375 39.875 C1.46328125 38.67230469 1.4890625 37.46960938 1.515625 36.23046875 C1.15624761 32.35004862 -0.0520163 30.12270024 -1.8125 26.6875 C-2.2890625 23.328125 -2.2890625 23.328125 -2.4375 19.9375 C-2.51073442 15.65403126 -2.51073442 15.65403126 -3.8125 11.6875 C-5.25086751 11.80208693 -6.68820966 11.92959116 -8.125 12.0625 C-8.92550781 12.13210937 -9.72601563 12.20171875 -10.55078125 12.2734375 C-13.08474441 12.58314426 -13.08474441 12.58314426 -15.8125 14.6875 C-18.35623906 14.89503546 -20.78777484 14.99154999 -23.33203125 14.98828125 C-24.06822189 14.99256638 -24.80441254 14.9968515 -25.56291199 15.00126648 C-27.12046278 15.00700652 -28.67804038 15.00751242 -30.2355957 15.00317383 C-32.606104 15.0000251 -34.97535014 15.02343589 -37.34570312 15.04882812 C-38.8619776 15.05110245 -40.37825541 15.05180399 -41.89453125 15.05078125 C-42.59786087 15.059991 -43.30119049 15.06920074 -44.02583313 15.07868958 C-48.72067012 15.03508013 -51.74944127 13.96171723 -55.8125 11.6875 C-59.0491963 10.97991674 -59.0491963 10.97991674 -61.8125 10.6875 C-61.84988281 11.78449219 -61.88726562 12.88148437 -61.92578125 14.01171875 C-61.99146653 15.46617857 -62.05791299 16.92060416 -62.125 18.375 C-62.14755859 19.09623047 -62.17011719 19.81746094 -62.19335938 20.56054688 C-62.42699219 25.21196379 -63.35486695 27.67530117 -65.8125 31.6875 C-66.90547097 39.65708001 -66.6611189 47.54646782 -62.484375 54.59765625 C-57.06311371 61.37423286 -50.1951898 63.67247702 -41.8125 64.6875 C-43.47916667 68.02083333 -45.14583333 71.35416667 -46.8125 74.6875 C-51.58076662 75.30276021 -54.36774399 75.64001613 -58.4609375 72.94140625 C-60.1584855 71.51148969 -61.8249605 70.04360277 -63.453125 68.53515625 C-65.9899797 66.54851342 -67.64766443 66.04101887 -70.8125 65.6875 C-71.1425 66.6775 -71.4725 67.6675 -71.8125 68.6875 C-71.131875 68.8525 -70.45125 69.0175 -69.75 69.1875 C-66.70125375 70.7443066 -65.52007768 72.02707259 -63.375 74.625 C-58.92720186 79.93925232 -54.69606941 81.86802745 -47.8125 82.6875 C-47.75858007 84.47883978 -47.71974429 86.27063899 -47.6875 88.0625 C-47.66429687 89.06023437 -47.64109375 90.05796875 -47.6171875 91.0859375 C-47.8125 93.6875 -47.8125 93.6875 -49.8125 95.6875 C-56.9698388 96.46721009 -61.32181356 92.85207764 -66.8125 88.6875 C-78.68118896 78.48757936 -85.69582003 66.28303826 -87.8125 50.6875 C-89.01136043 34.63063164 -84.43232026 20.31438225 -74.0625 7.9375 C-54.96404175 -12.35687689 -22.96743064 -17.34437004 0 0 Z " fill="#FBFBFB" transform="translate(112.8125,35.3125)"/>
<path d="M0 0 C0.33 0 0.66 0 1 0 C1.13956099 10.87520845 1.24590427 21.75020079 1.31087303 32.62612534 C1.34206893 37.67734355 1.38432498 42.72794516 1.45263672 47.77880859 C1.51825096 52.66126743 1.55379415 57.54313649 1.56926346 62.4260025 C1.58027483 64.28062462 1.60177635 66.13521767 1.63438034 67.98958588 C1.85959322 81.34033236 0.35141913 92.15846569 -9.16796875 102.40625 C-20.5550778 112.31230648 -31.18115311 113.85548995 -45.69970703 113.19091797 C-55.62900619 112.36681354 -63.57768991 105.79119167 -70.25 98.8125 C-77.47322761 89.93939868 -80.04458071 78.18142728 -79 67 C-76.20922513 55.39037652 -69.68146033 45.93687189 -60 39 C-54.99815437 36.20764174 -50.78370375 34 -45 34 C-45.40271254 39.50373802 -47.25375839 43.07056809 -51 47 C-56.92742187 51.49467273 -61.4900234 53.14169767 -69 53 C-67.78376953 54.39798828 -67.78376953 54.39798828 -66.54296875 55.82421875 C-63.14496981 60.58045907 -63.29290082 65.13265697 -63.3125 70.8125 C-63.29596125 72.69410037 -63.27161537 74.57565348 -63.23828125 76.45703125 C-63.2388855 77.6941687 -63.2388855 77.6941687 -63.23950195 78.95629883 C-63.18763218 81.22569972 -63.18763218 81.22569972 -61 83 C-52.86075555 83.17317541 -46.3082607 78.00280314 -40.50390625 72.734375 C-34.8602829 66.83379072 -31.22124939 60.46696171 -28 53 C-27.64035156 52.25492188 -27.28070313 51.50984375 -26.91015625 50.7421875 C-26.07388138 48.22259541 -25.71750504 46.11958935 -25.4296875 43.49609375 C-25.29046875 42.26149414 -25.29046875 42.26149414 -25.1484375 41.00195312 C-24.96598014 39.29076377 -24.80714318 37.57689282 -24.671875 35.86132812 C-23.92058632 29.72098795 -23.92058632 29.72098795 -21.20849609 27.59692383 C-19.078125 26.546875 -19.078125 26.546875 -16.98925781 25.75683594 C-10.39723585 23.24882562 -6.1253277 17.03861251 -3 11 C-1.75214873 7.37795979 -0.79806346 3.7452978 0 0 Z " fill="#141414" transform="translate(159,47)"/>
<path d="M0 0 C9.68818752 0.16703772 18.37782902 4.09403342 25.72265625 10.30078125 C34.29790547 19.27687685 37.74268222 27.95777045 37.51977539 40.2265625 C36.96175998 52.0778652 33.61620785 61.61053446 25 70 C17.56913828 76 17.56913828 76 13 76 C13 78.64 13 81.28 13 84 C12.67 84 12.34 84 12 84 C11.96132812 82.56720703 11.96132812 82.56720703 11.921875 81.10546875 C11.3853046 68.87410264 8.35181047 59.87676212 2.171875 49.21484375 C1 47 1 47 1 45 C1.65226562 44.72027344 2.30453125 44.44054688 2.9765625 44.15234375 C9.5772413 41.12459876 14.97152079 37.99242214 17.8046875 31.01953125 C18.37302686 29.00698707 18.73162806 27.07265713 19 25 C19.144375 23.88625 19.28875 22.7725 19.4375 21.625 C18.73640602 15.81593563 16.49211458 10.54539019 12.35546875 6.3203125 C8.51724731 3.39182752 4.6797259 2.05055071 0 1 C0 0.67 0 0.34 0 0 Z " fill="#2D2D2D" transform="translate(123,0)"/>
</svg>
