<?xml version="1.0" encoding="UTF-8"?>
<svg version="1.1" xmlns="http://www.w3.org/2000/svg" width="160" height="160">
<path d="M0 0 C0.90965012 -0.0065712 1.81930023 -0.0131424 2.7565155 -0.01991272 C5.76069226 -0.03958807 8.76481911 -0.05129666 11.76904297 -0.0612793 C12.79882137 -0.06535482 13.82859978 -0.06943035 14.88958359 -0.07362938 C20.34223986 -0.09446745 25.79487115 -0.10877791 31.24755859 -0.11816406 C36.8593721 -0.12921234 42.47078736 -0.16360077 48.0824604 -0.20333576 C52.41497499 -0.22957081 56.74739574 -0.23786211 61.07998276 -0.24144554 C63.14748697 -0.24629514 65.21498744 -0.25786231 67.28241348 -0.27648354 C83.03768676 -0.40954973 95.70254781 0.83511565 107.82373047 11.9543457 C119.13370018 23.87368878 118.64544812 36.86307476 118.58544922 52.3605957 C118.59136667 54.62541579 118.59861695 56.89023275 118.60713196 59.15504456 C118.61897585 63.88819753 118.61236481 68.62087918 118.59301758 73.35400391 C118.57013995 79.39410546 118.59691914 85.43279929 118.63807964 91.47276211 C118.66375815 96.1459545 118.66105023 100.81881457 118.65018654 105.49205208 C118.64870824 107.71780742 118.65629188 109.9435893 118.67343712 112.1692791 C118.81709531 134.42832363 118.81709531 134.42832363 111.88623047 144.17700195 C111.17034004 145.21920143 111.17034004 145.21920143 110.43998718 146.28245544 C105.44726037 153.14873602 96.96315417 158.00031653 88.88623047 160.17700195 C85.60152102 160.47788546 82.32917613 160.49119724 79.03222656 160.49926758 C77.5675293 160.51416229 77.5675293 160.51416229 76.07324219 160.52935791 C72.85202174 160.55849664 69.63099841 160.572189 66.40966797 160.58325195 C64.16012572 160.59476547 61.91058349 160.6062808 59.66104126 160.61779785 C54.94524221 160.6387895 50.22951105 160.65049267 45.51367188 160.6574707 C39.49484322 160.66842066 33.47692391 160.71644403 27.45837975 160.77341461 C22.81012422 160.81081837 18.1620842 160.82108661 13.51369095 160.82414246 C11.29627143 160.83016495 9.07885431 160.84611811 6.86158371 160.87251282 C-8.46666323 161.04192486 -19.69968104 160.16659899 -31.36767578 149.15356445 C-39.15819097 140.33477097 -42.58585345 130.20218668 -42.50195312 118.59326172 C-42.50721008 117.6814212 -42.51246704 116.76958069 -42.5178833 115.83010864 C-42.53099033 112.84269624 -42.52237753 109.85582518 -42.51220703 106.8684082 C-42.51423061 104.77530313 -42.51714441 102.68219874 -42.52090454 100.58909607 C-42.52531547 96.21232357 -42.51893715 91.83573536 -42.50488281 87.45898438 C-42.48780244 81.8696374 -42.49763288 76.28072303 -42.5156002 70.69139194 C-42.52648037 66.37176805 -42.52297213 62.05224541 -42.51521683 57.73261833 C-42.51322596 55.67268764 -42.51563464 53.61274753 -42.52265549 51.55282784 C-42.53033869 48.6650192 -42.51856974 45.77789486 -42.50195312 42.89013672 C-42.50802582 42.05190872 -42.51409851 41.21368073 -42.52035522 40.35005188 C-42.39416328 28.41499825 -37.86892056 19.25376749 -29.98876953 10.48950195 C-21.44277068 2.30594501 -11.35474181 0.03579083 0 0 Z " fill="#2864B4" transform="translate(42.11376953125,-0.177001953125)"/>
<path d="M0 0 C0.86409485 -0.0049649 1.7281897 -0.00992981 2.61846924 -0.01504517 C5.4699382 -0.02961928 8.32135151 -0.03646116 11.17285156 -0.04199219 C13.16196697 -0.0477479 15.15108236 -0.05350558 17.14019775 -0.05926514 C21.30961362 -0.06976186 25.47901028 -0.0756131 29.6484375 -0.07910156 C34.97564597 -0.08458098 40.30259819 -0.10860292 45.62972641 -0.13707352 C49.7391228 -0.15575212 53.84845813 -0.16090829 57.95789337 -0.16243744 C59.92097625 -0.16545311 61.88405834 -0.17344475 63.8470993 -0.18662262 C66.60138615 -0.2037912 69.35505548 -0.20177654 72.109375 -0.1953125 C72.91072876 -0.20452728 73.71208252 -0.21374207 74.53771973 -0.22323608 C81.38685645 -0.17320607 88.08092062 1.17712702 93.62597656 5.41113281 C98.68514605 10.5879574 101.01831971 15.678282 101.62597656 22.84863281 C101.5039178 28.81841568 99.47226809 33.83423867 95.40722656 38.21582031 C90.30835574 42.80099893 86.61040263 45.40776225 79.60546875 45.41650391 C78.45616882 45.42346283 77.3068689 45.43042175 76.1227417 45.43759155 C74.26035858 45.43609604 74.26035858 45.43609604 72.36035156 45.43457031 C70.39087194 45.44967515 68.4213922 45.46480424 66.45192337 45.48125648 C61.6131859 45.51882315 56.77441851 45.53610583 51.93554688 45.54199219 C30.2895273 45.42154721 30.2895273 45.42154721 9.31347656 50.16113281 C8.3528833 50.48210938 7.39229004 50.80308594 6.40258789 51.13378906 C-12.41784486 57.7152965 -25.71063124 72.47173945 -34.33056641 89.90698242 C-38.20519367 98.09901962 -39.9503709 106.18007182 -40.68652344 115.16113281 C-41.01652344 115.16113281 -41.34652344 115.16113281 -41.68652344 115.16113281 C-41.75624213 104.64241068 -41.80944538 94.12374414 -41.84195995 83.60483742 C-41.85757066 78.71971052 -41.87872441 73.83474251 -41.9128418 68.94970703 C-41.94559986 64.22939888 -41.96341096 59.50924291 -41.97115517 54.7888298 C-41.97666928 52.99402854 -41.98743656 51.19923497 -42.00371361 49.40449905 C-42.14011522 33.73166623 -40.38482513 22.51125616 -29.56152344 10.47363281 C-21.17943193 2.44703179 -11.21346801 0.0154859 0 0 Z " fill="#417DCD" transform="translate(41.6865234375,-0.1611328125)"/>
<path d="M0 0 C0.33 0 0.66 0 1 0 C1.13958312 10.61443668 1.24591524 21.22865175 1.31087303 31.84382248 C1.34206425 36.77398052 1.38431126 41.70350644 1.45263672 46.63330078 C1.51826833 51.39905172 1.55379765 56.1641982 1.56926346 60.93036652 C1.5802718 62.74033359 1.60176725 64.55027101 1.63438034 66.35997772 C1.86272353 79.56704373 0.24076705 90.27758455 -9.16796875 100.40625 C-20.5550778 110.31230648 -31.18115311 111.85548995 -45.69970703 111.19091797 C-55.67452839 110.36303532 -63.71991973 103.74630852 -70.3125 96.625 C-73.33350704 92.88671475 -75.75092118 88.66035614 -77 84 C-76.4539749 80.4539749 -76.4539749 80.4539749 -75 79 C-74.8890583 76.04200018 -74.8383355 73.10343337 -74.82421875 70.14453125 C-74.8010097 68.30662931 -74.77689194 66.46873866 -74.75195312 64.63085938 C-74.71690069 61.72542903 -74.68753666 58.8204105 -74.67407227 55.91479492 C-74.65855314 53.11586078 -74.61830482 50.31814251 -74.57421875 47.51953125 C-74.57612717 46.65681107 -74.57803558 45.79409088 -74.58000183 44.90522766 C-74.4503293 38.4796072 -72.69550144 34.88803725 -68.25 30.125 C-64.84490792 28.42245396 -61.67561795 28.37712992 -58 29 C-54.65866096 30.27009964 -51.77287679 31.76654233 -49.82263184 34.8789978 C-48.94745327 37.13548192 -48.73753444 38.77465135 -48.71289062 41.18603516 C-48.69947632 42.00012848 -48.68606201 42.8142218 -48.67224121 43.65298462 C-48.66696411 44.52289032 -48.66168701 45.39279602 -48.65625 46.2890625 C-48.6416272 47.1886972 -48.62700439 48.08833191 -48.61193848 49.01522827 C-48.54969369 52.86059582 -48.50996448 56.70612138 -48.46826172 60.55175781 C-48.43461349 63.36020001 -48.3894933 66.16829558 -48.34375 68.9765625 C-48.3384729 69.85051666 -48.3331958 70.72447083 -48.32775879 71.62490845 C-48.47056947 76.2940933 -48.47056947 76.2940933 -46 80 C-43.43707683 80.17163731 -40.99654143 80.23264558 -38.4375 80.1875 C-37.39045898 80.1865332 -37.39045898 80.1865332 -36.32226562 80.18554688 C-32.87149957 80.4548138 -32.87149957 80.4548138 -30 79 C-29.8774645 77.46617321 -29.82222062 75.92689481 -29.79467773 74.38842773 C-29.77473251 73.40748642 -29.75478729 72.4265451 -29.73423767 71.4158783 C-29.71752518 70.3492244 -29.70081268 69.2825705 -29.68359375 68.18359375 C-29.66281265 67.0974025 -29.64203156 66.01121124 -29.62062073 64.8921051 C-29.55500558 61.40730373 -29.49618489 57.92242432 -29.4375 54.4375 C-29.39432615 52.08137199 -29.35071224 49.72525201 -29.30664062 47.36914062 C-29.19931208 41.57951063 -29.09756835 35.78980225 -29 30 C-28.05898437 29.55269531 -27.11796875 29.10539062 -26.1484375 28.64453125 C-24.89041125 28.03429463 -23.63261071 27.42359253 -22.375 26.8125 C-21.44880859 26.37454102 -21.44880859 26.37454102 -20.50390625 25.92773438 C-11.81911498 21.6767576 -5.61751967 15.4800768 -1.95703125 6.41796875 C-1.24328331 4.29012864 -0.58392911 2.16668435 0 0 Z " fill="#0F4B9B" transform="translate(159,49)"/>
<path d="M0 0 C6.06187225 3.76570852 10.02459807 8.60424207 12.375 15.3125 C12.91113801 19.20466876 12.88983903 23.03723115 12.8359375 26.9609375 C12.83502106 28.05467682 12.83410461 29.14841614 12.8331604 30.27529907 C12.82714601 32.57306289 12.81146565 34.87081966 12.78662109 37.16845703 C12.74989873 40.69723106 12.74560355 44.22496026 12.74609375 47.75390625 C12.73626994 49.98959246 12.72461617 52.22527155 12.7109375 54.4609375 C12.70871185 55.51920746 12.70648621 56.57747742 12.70419312 57.66781616 C12.69143341 58.64288116 12.67867371 59.61794617 12.66552734 60.62255859 C12.65409195 61.91206924 12.65409195 61.91206924 12.64242554 63.22763062 C12.375 65.3125 12.375 65.3125 10.375 67.3125 C7.84707337 67.53805081 5.46444424 67.63688591 2.9375 67.625 C1.9155957 67.64916992 1.9155957 67.64916992 0.87304688 67.67382812 C-4.13656827 67.6787347 -4.13656827 67.6787347 -6.31895447 66.04234314 C-7.90355024 63.94356323 -8.00700032 62.87960722 -8.02563477 60.27172852 C-8.04564293 59.06015831 -8.04564293 59.06015831 -8.0660553 57.82411194 C-8.06617111 56.95531906 -8.06628693 56.08652618 -8.06640625 55.19140625 C-8.07961411 54.29509995 -8.09282196 53.39879364 -8.10643005 52.47532654 C-8.14736105 49.60851959 -8.16900301 46.74203323 -8.1875 43.875 C-8.21129527 41.01163566 -8.23944441 38.14857306 -8.27928162 35.28538513 C-8.30360934 33.50364173 -8.31849173 31.72173864 -8.32289124 29.93983459 C-8.33307785 29.12896896 -8.34326447 28.31810333 -8.35375977 27.48266602 C-8.36017235 26.41702171 -8.36017235 26.41702171 -8.36671448 25.32984924 C-8.67350987 22.93361177 -9.35351877 21.36168252 -10.625 19.3125 C-15.42501685 16.11248876 -19.03538746 15.69143194 -24.625 16.3125 C-28.20538662 18.49186577 -30.02849559 20.48686723 -31.625 24.3125 C-31.93331885 26.35366589 -31.93331885 26.35366589 -31.91210938 28.49853516 C-31.92552368 29.31262848 -31.93893799 30.1267218 -31.95275879 30.96548462 C-31.95803589 31.83539032 -31.96331299 32.70529602 -31.96875 33.6015625 C-31.9833728 34.5011972 -31.99799561 35.40083191 -32.01306152 36.32772827 C-32.07530631 40.17309582 -32.11503552 44.01862138 -32.15673828 47.86425781 C-32.19038651 50.67270001 -32.2355067 53.48079558 -32.28125 56.2890625 C-32.2865271 57.16301666 -32.2918042 58.03697083 -32.29724121 58.93740845 C-32.39936024 65.08686024 -32.39936024 65.08686024 -34.625 67.3125 C-37.15292663 67.53805081 -39.53555576 67.63688591 -42.0625 67.625 C-43.0844043 67.64916992 -43.0844043 67.64916992 -44.12695312 67.67382812 C-49.08742364 67.67868657 -49.08742364 67.67868657 -51.31973267 66.15808105 C-53.17287129 63.53783811 -53.00604741 61.61295766 -53.01318359 58.41992188 C-53.02264008 57.20856567 -53.03209656 55.99720947 -53.0418396 54.74914551 C-53.03576691 53.43973999 -53.02969421 52.13033447 -53.0234375 50.78125 C-53.02545851 49.42508793 -53.02837018 48.06892691 -53.03213501 46.71276855 C-53.03655716 43.87139533 -53.03013123 41.03030515 -53.01611328 38.18896484 C-52.99902097 34.54697897 -53.0088628 30.9056563 -53.02683067 27.26369476 C-53.03767175 24.46355188 -53.03422079 21.6635662 -53.0264473 18.86341858 C-53.02347298 16.8675595 -53.0325834 14.87169432 -53.0418396 12.87585449 C-53.03238312 11.66449829 -53.02292664 10.45314209 -53.01318359 9.20507812 C-53.01079681 8.13713013 -53.00841003 7.06918213 -53.00595093 5.96887207 C-52.625 3.3125 -52.625 3.3125 -51.31973267 1.46691895 C-48.49360681 -0.45818305 -45.35539298 -0.07788299 -42.0625 0 C-41.37736328 -0.00322266 -40.69222656 -0.00644531 -39.98632812 -0.00976562 C-34.89227586 0.04522414 -34.89227586 0.04522414 -32.625 2.3125 C-32.5 5.4375 -32.5 5.4375 -32.625 8.3125 C-31.965 8.3125 -31.305 8.3125 -30.625 8.3125 C-30.315625 7.4771875 -30.315625 7.4771875 -30 6.625 C-24.21080905 -3.1113666 -9.74318522 -4.63783097 0 0 Z " fill="#FBFCFD" transform="translate(117.625,62.6875)"/>
<path d="M0 0 C0.68513672 -0.00322266 1.37027344 -0.00644531 2.07617188 -0.00976562 C7.17022414 0.04522414 7.17022414 0.04522414 9.4375 2.3125 C9.69146729 4.93127441 9.69146729 4.93127441 9.69628906 8.29101562 C9.70259338 9.54571655 9.70889771 10.80041748 9.71539307 12.09313965 C9.71181339 13.46834452 9.70771145 14.84354812 9.703125 16.21875 C9.70447173 17.62357653 9.70641232 19.02840261 9.70892334 20.43322754 C9.71187426 23.37886996 9.70757809 26.32439118 9.69824219 29.27001953 C9.68684755 33.04988503 9.69340721 36.82946652 9.70538712 40.60932159 C9.71260665 43.51062163 9.71031738 46.41185409 9.70513153 49.31315613 C9.70379529 50.70704685 9.70544188 52.10094366 9.71009064 53.49482727 C9.71515711 55.44121181 9.7060687 57.38761781 9.69628906 59.33398438 C9.69390228 60.99705627 9.69390228 60.99705627 9.69146729 62.69372559 C9.4375 65.3125 9.4375 65.3125 7.4375 67.3125 C4.90957337 67.53805081 2.52694424 67.63688591 0 67.625 C-1.0219043 67.64916992 -1.0219043 67.64916992 -2.06445312 67.67382812 C-7.02492364 67.67868657 -7.02492364 67.67868657 -9.25723267 66.15808105 C-11.11037129 63.53783811 -10.94354741 61.61295766 -10.95068359 58.41992188 C-10.96014008 57.20856567 -10.96959656 55.99720947 -10.9793396 54.74914551 C-10.97326691 53.43973999 -10.96719421 52.13033447 -10.9609375 50.78125 C-10.96295851 49.42508793 -10.96587018 48.06892691 -10.96963501 46.71276855 C-10.97405716 43.87139533 -10.96763123 41.03030515 -10.95361328 38.18896484 C-10.93652097 34.54697897 -10.9463628 30.9056563 -10.96433067 27.26369476 C-10.97517175 24.46355188 -10.97172079 21.6635662 -10.9639473 18.86341858 C-10.96097298 16.8675595 -10.9700834 14.87169432 -10.9793396 12.87585449 C-10.96988312 11.66449829 -10.96042664 10.45314209 -10.95068359 9.20507812 C-10.94829681 8.13713013 -10.94591003 7.06918213 -10.94345093 5.96887207 C-10.5625 3.3125 -10.5625 3.3125 -9.25723267 1.46691895 C-6.43110681 -0.45818305 -3.29289298 -0.07788299 0 0 Z " fill="#FBFCFD" transform="translate(40.5625,62.6875)"/>
<path d="M0 0 C4.5562994 1.86394066 6.87547226 4.58751931 9 9 C9.33879989 13.57379855 8.59485858 17.00148738 6.25 20.9375 C2.9767995 23.93793379 0.43117578 24.81729671 -3.9375 25.375 C-8.82725065 24.77625502 -11.76569144 22.48117027 -14.875 18.75 C-16.37988878 15.07138298 -16.92618982 11.85790879 -16 8 C-11.83490291 1.36386672 -7.89154868 -0.82108599 0 0 Z " fill="#FAFCFD" transform="translate(44,28)"/>
<path d="M0 0 C3.5 1.5 3.5 1.5 6 3 C2.92399664 6.47722119 -0.53989638 8.69343913 -4.48828125 11.046875 C-11.37536012 16.39842721 -11.37536012 16.39842721 -14.65307617 24.27246094 C-14.91088367 28.03074385 -14.97003797 31.73325108 -14.9375 35.5 C-14.95361328 36.799375 -14.96972656 38.09875 -14.98632812 39.4375 C-15.02149631 42.62608185 -15.02516966 45.81141879 -15 49 C-15.33 49 -15.66 49 -16 49 C-16.09914961 43.41330092 -16.17160105 37.82711814 -16.21972656 32.23974609 C-16.23979629 30.34056675 -16.26705851 28.44144885 -16.30175781 26.54248047 C-16.35048109 23.80681161 -16.37301507 21.07196229 -16.390625 18.3359375 C-16.41127014 17.49195404 -16.43191528 16.64797058 -16.45318604 15.77841187 C-16.45560335 9.37453134 -14.67319974 5.86414258 -10.25 1.125 C-6.87790955 -0.56104522 -3.65095622 -0.54554518 0 0 Z " fill="#336BB6" transform="translate(101,78)"/>
<path d="M0 0 C0 3.93169105 -1.39419615 5.16427228 -4 8 C-4.66 8 -5.32 8 -6 8 C-4.73058503 4.08597051 -3.48832306 2.20927127 0 0 Z " fill="#336BB7" transform="translate(92,79)"/>
</svg>
